<svg id="visual" viewBox="0 0 3000 1400" width="3000" height="1400" xmlns="http://www.w3.org/2000/svg" xmlns:xlink="http://www.w3.org/1999/xlink" version="1.1"><g stroke-width="1" stroke-linejoin="bevel"><path d="M1325.3 804L1317.3 535L1037 837Z" fill="#000000" stroke="#000000"></path><path d="M1317.3 535L961 540L1037 837Z" fill="#e2e2e2" stroke="#e2e2e2"></path><path d="M1317.3 535L984 270L961 540Z" fill="#ffffff" stroke="#ffffff"></path><path d="M1037 837L1304.3 1107L1325.3 804Z" fill="#e2e2e2" stroke="#e2e2e2"></path><path d="M1701.7 313L1366.3 256L1317.3 535Z" fill="#777777" stroke="#777777"></path><path d="M1317.3 535L1366.3 256L984 270Z" fill="#474747" stroke="#474747"></path><path d="M1702.7 585L1317.3 535L1325.3 804Z" fill="#e2e2e2" stroke="#e2e2e2"></path><path d="M676.7 859L1030 1146L1037 837Z" fill="#1b1b1b" stroke="#1b1b1b"></path><path d="M1037 837L1030 1146L1304.3 1107Z" fill="#ababab" stroke="#ababab"></path><path d="M651.7 313L676.7 547L961 540Z" fill="#919191" stroke="#919191"></path><path d="M961 540L676.7 859L1037 837Z" fill="#303030" stroke="#303030"></path><path d="M676.7 547L676.7 859L961 540Z" fill="#000000" stroke="#000000"></path><path d="M1646.7 1085L1674.7 830L1325.3 804Z" fill="#000000" stroke="#000000"></path><path d="M1674.7 830L1702.7 585L1325.3 804Z" fill="#919191" stroke="#919191"></path><path d="M984 270L651.7 313L961 540Z" fill="#000000" stroke="#000000"></path><path d="M676.7 547L366.3 569L676.7 859Z" fill="#5e5e5e" stroke="#5e5e5e"></path><path d="M1304.3 1107L1646.7 1085L1325.3 804Z" fill="#ffffff" stroke="#ffffff"></path><path d="M1674.7 830L1962 591L1702.7 585Z" fill="#000000" stroke="#000000"></path><path d="M1627.7 1400L1646.7 1085L1304.3 1107Z" fill="#777777" stroke="#777777"></path><path d="M1702.7 585L1701.7 313L1317.3 535Z" fill="#ffffff" stroke="#ffffff"></path><path d="M1696.7 0L1308.3 0L1366.3 256Z" fill="#c6c6c6" stroke="#c6c6c6"></path><path d="M1366.3 256L1308.3 0L984 270Z" fill="#000000" stroke="#000000"></path><path d="M984 270L666.7 0L651.7 313Z" fill="#1b1b1b" stroke="#1b1b1b"></path><path d="M1308.3 0L969 0L984 270Z" fill="#e2e2e2" stroke="#e2e2e2"></path><path d="M357.3 872L650.7 1155L676.7 859Z" fill="#5e5e5e" stroke="#5e5e5e"></path><path d="M676.7 859L650.7 1155L1030 1146Z" fill="#e2e2e2" stroke="#e2e2e2"></path><path d="M684.7 1400L1018 1400L1030 1146Z" fill="#474747" stroke="#474747"></path><path d="M1030 1146L1318.3 1400L1304.3 1107Z" fill="#c6c6c6" stroke="#c6c6c6"></path><path d="M1018 1400L1318.3 1400L1030 1146Z" fill="#ababab" stroke="#ababab"></path><path d="M1702.7 585L1962 591L1701.7 313Z" fill="#000000" stroke="#000000"></path><path d="M1989 869L1962 591L1674.7 830Z" fill="#ffffff" stroke="#ffffff"></path><path d="M333.3 314L366.3 569L651.7 313Z" fill="#5e5e5e" stroke="#5e5e5e"></path><path d="M651.7 313L366.3 569L676.7 547Z" fill="#919191" stroke="#919191"></path><path d="M366.3 569L357.3 872L676.7 859Z" fill="#919191" stroke="#919191"></path><path d="M969 0L666.7 0L984 270Z" fill="#919191" stroke="#919191"></path><path d="M2006 1109L1989 869L1646.7 1085Z" fill="#ababab" stroke="#ababab"></path><path d="M1646.7 1085L1989 869L1674.7 830Z" fill="#ffffff" stroke="#ffffff"></path><path d="M1701.7 313L1696.7 0L1366.3 256Z" fill="#303030" stroke="#303030"></path><path d="M1968 0L1696.7 0L1701.7 313Z" fill="#ffffff" stroke="#ffffff"></path><path d="M1318.3 1400L1627.7 1400L1304.3 1107Z" fill="#ffffff" stroke="#ffffff"></path><path d="M650.7 1155L684.7 1400L1030 1146Z" fill="#303030" stroke="#303030"></path><path d="M348.3 1400L684.7 1400L650.7 1155Z" fill="#777777" stroke="#777777"></path><path d="M330.3 0L333.3 314L651.7 313Z" fill="#ababab" stroke="#ababab"></path><path d="M366.3 569L0 590L357.3 872Z" fill="#1b1b1b" stroke="#1b1b1b"></path><path d="M2304.3 537L2007 287L1962 591Z" fill="#c6c6c6" stroke="#c6c6c6"></path><path d="M1962 591L2007 287L1701.7 313Z" fill="#474747" stroke="#474747"></path><path d="M0 866L321.3 1104L357.3 872Z" fill="#777777" stroke="#777777"></path><path d="M357.3 872L321.3 1104L650.7 1155Z" fill="#5e5e5e" stroke="#5e5e5e"></path><path d="M1999 1400L2006 1109L1646.7 1085Z" fill="#919191" stroke="#919191"></path><path d="M2301.3 872L2304.3 537L1962 591Z" fill="#000000" stroke="#000000"></path><path d="M2007 287L1968 0L1701.7 313Z" fill="#ababab" stroke="#ababab"></path><path d="M666.7 0L330.3 0L651.7 313Z" fill="#303030" stroke="#303030"></path><path d="M333.3 314L0 590L366.3 569Z" fill="#303030" stroke="#303030"></path><path d="M321.3 1104L348.3 1400L650.7 1155Z" fill="#474747" stroke="#474747"></path><path d="M1627.7 1400L1999 1400L1646.7 1085Z" fill="#5e5e5e" stroke="#5e5e5e"></path><path d="M2301.3 872L1962 591L1989 869Z" fill="#777777" stroke="#777777"></path><path d="M2007 287L2300.3 242L1968 0Z" fill="#c6c6c6" stroke="#c6c6c6"></path><path d="M2301.3 872L1989 869L2006 1109Z" fill="#474747" stroke="#474747"></path><path d="M2369.3 1120L2301.3 872L2006 1109Z" fill="#5e5e5e" stroke="#5e5e5e"></path><path d="M0 292L0 590L333.3 314Z" fill="#e2e2e2" stroke="#e2e2e2"></path><path d="M321.3 1104L0 1400L348.3 1400Z" fill="#c6c6c6" stroke="#c6c6c6"></path><path d="M0 590L0 866L357.3 872Z" fill="#1b1b1b" stroke="#1b1b1b"></path><path d="M2304.3 537L2300.3 242L2007 287Z" fill="#e2e2e2" stroke="#e2e2e2"></path><path d="M330.3 0L0 292L333.3 314Z" fill="#303030" stroke="#303030"></path><path d="M0 866L0 1132L321.3 1104Z" fill="#777777" stroke="#777777"></path><path d="M2336.3 1400L2369.3 1120L2006 1109Z" fill="#777777" stroke="#777777"></path><path d="M2301.3 872L2636.7 870L2304.3 537Z" fill="#303030" stroke="#303030"></path><path d="M2631.7 272L2354.3 0L2300.3 242Z" fill="#1b1b1b" stroke="#1b1b1b"></path><path d="M330.3 0L0 0L0 292Z" fill="#000000" stroke="#000000"></path><path d="M2631.7 272L2300.3 242L2304.3 537Z" fill="#ffffff" stroke="#ffffff"></path><path d="M2300.3 242L2354.3 0L1968 0Z" fill="#ababab" stroke="#ababab"></path><path d="M0 1132L0 1400L321.3 1104Z" fill="#1b1b1b" stroke="#1b1b1b"></path><path d="M1999 1400L2336.3 1400L2006 1109Z" fill="#e2e2e2" stroke="#e2e2e2"></path><path d="M2639.7 1112L2636.7 870L2369.3 1120Z" fill="#474747" stroke="#474747"></path><path d="M2369.3 1120L2636.7 870L2301.3 872Z" fill="#1b1b1b" stroke="#1b1b1b"></path><path d="M2683.7 569L2631.7 272L2304.3 537Z" fill="#ababab" stroke="#ababab"></path><path d="M2636.7 870L2683.7 569L2304.3 537Z" fill="#777777" stroke="#777777"></path><path d="M2336.3 1400L2639.7 1112L2369.3 1120Z" fill="#474747" stroke="#474747"></path><path d="M3000 875L3000 537L2683.7 569Z" fill="#1b1b1b" stroke="#1b1b1b"></path><path d="M3000 269L2697.7 0L2631.7 272Z" fill="#e2e2e2" stroke="#e2e2e2"></path><path d="M2631.7 272L2697.7 0L2354.3 0Z" fill="#5e5e5e" stroke="#5e5e5e"></path><path d="M2336.3 1400L2705.7 1400L2639.7 1112Z" fill="#e2e2e2" stroke="#e2e2e2"></path><path d="M3000 875L2683.7 569L2636.7 870Z" fill="#ffffff" stroke="#ffffff"></path><path d="M2683.7 569L3000 269L2631.7 272Z" fill="#000000" stroke="#000000"></path><path d="M3000 875L2636.7 870L2639.7 1112Z" fill="#ffffff" stroke="#ffffff"></path><path d="M3000 1156L3000 875L2639.7 1112Z" fill="#000000" stroke="#000000"></path><path d="M3000 537L3000 269L2683.7 569Z" fill="#000000" stroke="#000000"></path><path d="M2705.7 1400L3000 1156L2639.7 1112Z" fill="#5e5e5e" stroke="#5e5e5e"></path><path d="M3000 269L3000 0L2697.7 0Z" fill="#e2e2e2" stroke="#e2e2e2"></path><path d="M2705.7 1400L3000 1400L3000 1156Z" fill="#ababab" stroke="#ababab"></path></g></svg>